# xmcd
#
# Track frame offsets: 
#        150
#        24620
#        40365
#        56086
#        70352
#        86358
#        109658
#        134420
#        146203
#        165823
#        172411
#        187758
#        206608
#        220547
#
# Disc length: 3107 seconds
#
# Revision: 7
# Processed by: cddbd v1.5.2PL0 Copyright (c) Steve Scherf et al.
# Submitted via: ExactAudioCopy v0.99pb4
#
DISCID=c90c210e
DTITLE=Eric Bibb - Roadworks
DYEAR=1900
DGENRE=Blues
TTITLE0=Tell Ol' Bill
TTITLE1=New Automobile
TTITLE2=Sugar Mama
TTITLE3=Candy Man
TTITLE4=Panama Hat
TTITLE5=Goin' Down Slow
TTITLE6=For You
TTITLE7=Gonna Walk This Road
TTITLE8=I Want Jesus To Walk With Me
TTITLE9=Sebastian's Tune
TTITLE10=Shavin' Talk
TTITLE11=Saucer 'n' Cup
TTITLE12=Gratitude
TTITLE13=Lazy Afternoon (Duet With Leon Bibb)
EXTD=ID3G: 0
EXTT0=
EXTT1=
EXTT2=
EXTT3=
EXTT4=
EXTT5=
EXTT6=
EXTT7=
EXTT8=
EXTT9=
EXTT10=
EXTT11=
EXTT12=
EXTT13=
PLAYORDER=
